<mxfile host="app.diagrams.net" modified="2024-04-14T10:57:32.941Z" agent="Mozilla/5.0 (Windows NT 10.0; Win64; x64) AppleWebKit/537.36 (KHTML, like Gecko) Chrome/123.0.0.0 Safari/537.36" etag="zrkps27saIoOpywry0By" version="24.2.2" type="device">
  <diagram id="C5RBs43oDa-KdzZeNtuy" name="Page-1">
    <mxGraphModel dx="1050" dy="557" grid="1" gridSize="10" guides="1" tooltips="1" connect="1" arrows="1" fold="1" page="1" pageScale="1" pageWidth="827" pageHeight="1169" math="0" shadow="0">
      <root>
        <mxCell id="WIyWlLk6GJQsqaUBKTNV-0" />
        <mxCell id="WIyWlLk6GJQsqaUBKTNV-1" parent="WIyWlLk6GJQsqaUBKTNV-0" />
        <mxCell id="9ietTS9ORnDmtR_gYcwg-3" value="" style="edgeStyle=orthogonalEdgeStyle;rounded=0;orthogonalLoop=1;jettySize=auto;html=1;" edge="1" parent="WIyWlLk6GJQsqaUBKTNV-1" source="9ietTS9ORnDmtR_gYcwg-1" target="9ietTS9ORnDmtR_gYcwg-2">
          <mxGeometry relative="1" as="geometry" />
        </mxCell>
        <mxCell id="9ietTS9ORnDmtR_gYcwg-1" value="start" style="ellipse;whiteSpace=wrap;html=1;" vertex="1" parent="WIyWlLk6GJQsqaUBKTNV-1">
          <mxGeometry x="330" y="90" width="120" height="80" as="geometry" />
        </mxCell>
        <mxCell id="9ietTS9ORnDmtR_gYcwg-6" value="" style="edgeStyle=orthogonalEdgeStyle;rounded=0;orthogonalLoop=1;jettySize=auto;html=1;" edge="1" parent="WIyWlLk6GJQsqaUBKTNV-1" source="9ietTS9ORnDmtR_gYcwg-2" target="9ietTS9ORnDmtR_gYcwg-5">
          <mxGeometry relative="1" as="geometry" />
        </mxCell>
        <mxCell id="9ietTS9ORnDmtR_gYcwg-2" value="Enter the payee details" style="rounded=1;whiteSpace=wrap;html=1;" vertex="1" parent="WIyWlLk6GJQsqaUBKTNV-1">
          <mxGeometry x="330" y="210" width="120" height="60" as="geometry" />
        </mxCell>
        <mxCell id="9ietTS9ORnDmtR_gYcwg-9" value="" style="edgeStyle=orthogonalEdgeStyle;rounded=0;orthogonalLoop=1;jettySize=auto;html=1;" edge="1" parent="WIyWlLk6GJQsqaUBKTNV-1" source="9ietTS9ORnDmtR_gYcwg-5" target="9ietTS9ORnDmtR_gYcwg-8">
          <mxGeometry relative="1" as="geometry" />
        </mxCell>
        <mxCell id="9ietTS9ORnDmtR_gYcwg-14" value="" style="edgeStyle=orthogonalEdgeStyle;rounded=0;orthogonalLoop=1;jettySize=auto;html=1;" edge="1" parent="WIyWlLk6GJQsqaUBKTNV-1" source="9ietTS9ORnDmtR_gYcwg-5" target="9ietTS9ORnDmtR_gYcwg-13">
          <mxGeometry relative="1" as="geometry" />
        </mxCell>
        <mxCell id="9ietTS9ORnDmtR_gYcwg-5" value="Is payee detail exists?" style="rhombus;whiteSpace=wrap;html=1;" vertex="1" parent="WIyWlLk6GJQsqaUBKTNV-1">
          <mxGeometry x="325" y="320" width="130" height="100" as="geometry" />
        </mxCell>
        <mxCell id="9ietTS9ORnDmtR_gYcwg-12" value="" style="edgeStyle=orthogonalEdgeStyle;rounded=0;orthogonalLoop=1;jettySize=auto;html=1;" edge="1" parent="WIyWlLk6GJQsqaUBKTNV-1" source="9ietTS9ORnDmtR_gYcwg-8" target="9ietTS9ORnDmtR_gYcwg-11">
          <mxGeometry relative="1" as="geometry" />
        </mxCell>
        <mxCell id="9ietTS9ORnDmtR_gYcwg-8" value="Delete payee" style="rounded=1;whiteSpace=wrap;html=1;" vertex="1" parent="WIyWlLk6GJQsqaUBKTNV-1">
          <mxGeometry x="140" y="340" width="120" height="60" as="geometry" />
        </mxCell>
        <mxCell id="9ietTS9ORnDmtR_gYcwg-10" value="true" style="text;html=1;align=center;verticalAlign=middle;whiteSpace=wrap;rounded=0;" vertex="1" parent="WIyWlLk6GJQsqaUBKTNV-1">
          <mxGeometry x="265" y="330" width="60" height="30" as="geometry" />
        </mxCell>
        <mxCell id="9ietTS9ORnDmtR_gYcwg-11" value="end" style="ellipse;whiteSpace=wrap;html=1;" vertex="1" parent="WIyWlLk6GJQsqaUBKTNV-1">
          <mxGeometry x="140" y="450" width="120" height="80" as="geometry" />
        </mxCell>
        <mxCell id="9ietTS9ORnDmtR_gYcwg-16" value="" style="edgeStyle=orthogonalEdgeStyle;rounded=0;orthogonalLoop=1;jettySize=auto;html=1;" edge="1" parent="WIyWlLk6GJQsqaUBKTNV-1" source="9ietTS9ORnDmtR_gYcwg-13" target="9ietTS9ORnDmtR_gYcwg-15">
          <mxGeometry relative="1" as="geometry" />
        </mxCell>
        <mxCell id="9ietTS9ORnDmtR_gYcwg-13" value="Display payee not found" style="rounded=1;whiteSpace=wrap;html=1;" vertex="1" parent="WIyWlLk6GJQsqaUBKTNV-1">
          <mxGeometry x="510" y="340" width="120" height="60" as="geometry" />
        </mxCell>
        <mxCell id="9ietTS9ORnDmtR_gYcwg-15" value="end" style="ellipse;whiteSpace=wrap;html=1;" vertex="1" parent="WIyWlLk6GJQsqaUBKTNV-1">
          <mxGeometry x="510" y="450" width="120" height="80" as="geometry" />
        </mxCell>
      </root>
    </mxGraphModel>
  </diagram>
</mxfile>
